<?xml version="1.0" encoding="UTF-8"?><svg xmlns="http://www.w3.org/2000/svg" xmlns:xlink="http://www.w3.org/1999/xlink" version="1.1" id="Layer_1" x="0px" y="0px" viewBox="0 0 48 48" xml:space="preserve"><g fill="#29B6F6"><path d="M46 24c0 .698-.268 1.396-.784 1.923l-6.992 7.05a.955.955 0 0 1-.679.287.971.971 0 0 1-.679-.287l-6.849-6.916a.953.953 0 0 1 0-1.349l8.217-8.303c.363-.363 1.004-.363 1.358 0l5.624 5.672A2.75 2.75 0 0 1 46 24z"/><path d="M11 16.157v15.687a.966.966 0 0 1-.54.87.804.804 0 0 1-.36.086.895.895 0 0 1-.612-.258l-6.678-6.6A2.713 2.713 0 0 1 2 24c0-.746.288-1.435.81-1.951l6.678-6.59a.86.86 0 0 1 .972-.172c.324.143.54.487.54.87z"/><path d="M34.574 12.79L17.666 29.605a1 1 0 0 1-.692.287.98.98 0 0 1-.37-.077.959.959 0 0 1-.604-.879V9.145c0-.249.097-.497.283-.67l5.701-5.672A2.737 2.737 0 0 1 23.932 2c.731 0 1.423.287 1.939.803l8.702 8.647a.947.947 0 0 1 .001 1.34z"/><path d="M33.282 37.937l-7.357 7.27a2.777 2.777 0 0 1-1.951.793 2.807 2.807 0 0 1-1.951-.794l-5.737-5.682a.929.929 0 0 1 0-1.339l8.616-8.523c.361-.363 1.015-.363 1.385 0l6.996 6.925c.38.374.38.976-.001 1.35z"/></g><metadata><rdf:RDF xmlns:rdf="http://www.w3.org/1999/02/22-rdf-syntax-ns#" xmlns:rdfs="http://www.w3.org/2000/01/rdf-schema#" xmlns:dc="http://purl.org/dc/elements/1.1/"><rdf:Description about="https://iconscout.com/legal#licenses" dc:title="kodi" dc:description="kodi" dc:publisher="Iconscout" dc:date="2017-12-15" dc:format="image/svg+xml" dc:language="en"><dc:creator><rdf:Bag><rdf:li>Icons8</rdf:li></rdf:Bag></dc:creator></rdf:Description></rdf:RDF></metadata></svg>